<svg xmlns="http://www.w3.org/2000/svg" width="1850" height="300" viewBox="0 0 674.473 109.374"><g fill-rule="evenodd"><g transform="translate(-489.28 225.343) scale(4.2731)"><path d="M261.336-44.82c-1.536-.367-3.222-.05-4.832.649 0 0-3.402 1.512-1.37 6.473 0 0-4.724.945-4.819-1.748-.367-2.74 1.088-2.548-2.599-2.788 0 0 .284 6.379-5.197 4.489 0 0-.378-.142-2.173-5.292l-2.788 1.37s2.882 5.15-.189 7.512c-1.308 1.073-2.58 2.002-3.638 2.08l1.087 2.881c.175.234 6.392-3.132 6.567-5.905 4.678 1.937 7.37-1.087 7.37-1.087.945 2.079 5.738 2 6.899 1.653 1.427-.425 1.411-1.056 2.126-.803 4.37 1.545 5.936.64 6.662.33 1.843-1.133 1.741-3.092 1.04-4.63-1.077-3.42-2.534-4.8-4.146-5.185zM258.5-42.4c.988.068.77 3.137-.626 3.615 0 0-1.748-1.843-.047-3.307.266-.23.49-.32.673-.307zm3.132 2.175c.51-.147 1.851 1.433 1.534 2.29-.213.576.047.709-2.457.614-.144-.877-.228-2.8.923-2.904z"/><ellipse ry="1.512" rx="1.465" cy="-30.564" cx="246.346"/><ellipse ry="1.512" rx="1.465" cy="-30.611" cx="250.079" style="line-height:1.25;-inkscape-font-specification:SchoolBell" font-weight="400" font-size="41.443" font-family="SchoolBell" letter-spacing="0" word-spacing="0"/><path d="M212.99-37.368c-.42-1.74.141-4.11.472-5.527l2.646.472s-.894 4.416 2.81 4.93c3.733.517 7.63.758 9.758-.158 2.104-.907 1.864-1.065.708-5.811l2.552-.85s2.826 6.54.141 8.456c-2.976 2.126-9.402 1.985-9.402 1.985s-8.814.11-9.685-3.497z"/><circle cx="223.03" cy="-30.257" r="1.394"/></g><g transform="matrix(4.19552 0 0 4.19552 -487.472 224.194)"><path d="M184.539-44.246c-2.04.029-3.543 2.005-3.65 4.339-.098 2.17.406 4.796 4.932 4.95-.145 2.455-2.743 2.124-5.242 1.55l.011 2.704c7.08 1.618 8.805-2.393 8.563-7.88-.122-2.755-.564-5.722-4.614-5.663zm1.755 3.606c.058.862.4 2.328.104 2.475-1.98.244-4.393-.506-2.012-3.366.04-.178 1.334-.14 1.908.89zM197.587-35.336c-1.323 4.82-6.898 6.048-6.898 6.048l-.945-2.93s8.623-1.908 3.78-9.355l3.118-1.511c.725 2.477 1.45 4.069 2.174 5.291 0 0 2.603.891 3.739-.23.787-.778.77-2.573-.905-6.1l3.119-1.135s1.981 5.95.85 8.6c-.633 1.482-5.135 3.62-8.032 1.322z"/><circle style="line-height:1.25;-inkscape-font-specification:SchoolBell" cx="202.879" cy="-30.517" r="1.394" font-weight="400" font-size="41.443" font-family="SchoolBell" letter-spacing="0" word-spacing="0"/><circle style="line-height:1.25;-inkscape-font-specification:SchoolBell" cx="172.546" cy="-30.611" r="1.394" font-weight="400" font-size="41.443" font-family="SchoolBell" letter-spacing="0" word-spacing="0"/><circle style="line-height:1.25;-inkscape-font-specification:SchoolBell" cx="163.191" cy="-30.517" r="1.394" font-weight="400" font-size="41.443" font-family="SchoolBell" letter-spacing="0" word-spacing="0"/><circle style="line-height:1.25;-inkscape-font-specification:SchoolBell" cx="159.506" cy="-30.611" r="1.394" font-weight="400" font-size="41.443" font-family="SchoolBell" letter-spacing="0" word-spacing="0"/><path d="M163.57-41.762l-2.836-.377c.095 6.898-5.631 4.093-5.764 3.59-.566-2.145-4.535-6.425-4.535-6.425l8.234-3.057-1.04-2.929-9.368 3.567c-3.307 1.606-.567 4.781-.567 4.781 6.373 5.444 2.681 5.467-4.583 4.63-2.551-.756-2.22-4.063-2.22-4.063l-2.835.567c3.042 5.974-9.61 4.634-11.717 3.685-1.583-.713-1.078-3.524-.567-4.819l-3.024-.567s-1.811 5.275-.095 6.71c4.654 3.887 13.77 3.367 18.19.283 1.538 2.542 9.952 2.716 12.71.189.85 1.544 5.944 2.247 8.126 0-.11.74 7.61 4.34 15.97-2.126.426-.33 1.456-.76 1.456-.76s.475-2.706-.039-2.808c-4.385-2.188-8.154-3.415-11.846-2.475l.163 2.59c.048.007 5.884-.83 7.477 1.621-3.185 2.17-13.505 4.283-11.29-1.807z"/><circle style="line-height:1.25;-inkscape-font-specification:SchoolBell" cx="129.978" cy="-45.919" r="1.394" font-weight="400" font-size="41.443" font-family="SchoolBell" letter-spacing="0" word-spacing="0"/><circle style="line-height:1.25;-inkscape-font-specification:SchoolBell" cx="133.663" cy="-45.825" r="1.394" font-weight="400" font-size="41.443" font-family="SchoolBell" letter-spacing="0" word-spacing="0"/></g></g></svg>