<svg xmlns="http://www.w3.org/2000/svg" width="1850" height="300" viewBox="0 0 674.473 109.374"><g aria-label="هيرب بروجيكت" style="line-height:1.25;-inkscape-font-specification:SchoolBell" font-weight="700" font-size="67.287" font-family="Noto Sans Arabic" letter-spacing="0" word-spacing="0" stroke-width=".35"><path d="M636.84 77.378q-4.3 0-8.885-1.051-4.49-1.051-8.599-3.153-4.777 2.006-10.222 2.962-5.446.955-11.179.955l.956-13.375h4.872q2.293-.096 4.204-.287-1.624-2.58-2.58-5.637-.955-3.057-.955-6.592 0-4.873 2.293-8.885 2.389-4.109 6.975-5.924-1.816-1.242-3.822-2.58l7.357-10.413q10.127 7.165 16.91 12.515 6.879 5.35 11.083 9.363 4.203 4.013 6.4 7.07 2.294 2.962 3.058 5.446.765 2.484.765 4.968 0 6.879-4.873 10.796-4.873 3.822-13.758 3.822zm-20.35-26.656q0 2.58 1.051 4.777 1.147 2.198 2.962 3.917 2.197-1.91 3.44-4.3 1.241-2.388 1.241-4.68 0-2.198-.955-4.109-.955-1.91-3.153-1.91-2.293 0-3.44 1.91-1.146 1.911-1.146 4.395zm25.796 10.7q0-1.528-1.05-3.343-.956-1.816-4.873-5.255-.192 3.44-1.434 6.401-1.242 2.866-3.152 5.255 2.484.478 5.063.478 2.962 0 4.204-.956 1.242-.955 1.242-2.58z" style="-inkscape-font-specification:'Noto Sans Arabic Bold'"/><path d="M558.956 77.091l.955-13.375q3.44 0 5.924-.67 2.484-.668 4.203-2.674 1.72-2.102 2.867-6.115 1.242-4.013 2.197-10.7l12.516 2.101q-.382 2.198-.86 5.255t-.478 5.637q0 3.44 2.866 5.35 2.867 1.816 9.841 1.816 3.63 0 5.16 1.91 1.528 1.816 1.528 4.586 0 2.962-2.007 4.968-1.91 1.911-5.636 1.911-6.688 0-11.465-1.72-4.682-1.72-6.88-6.114-2.579 3.44-6.114 5.159-3.44 1.624-7.26 2.197-3.727.478-7.357.478zm26.655 22.165q-2.77 0-4.777-2.006-1.91-1.91-1.91-4.586 0-2.77 1.91-4.777 2.007-2.006 4.777-2.006 2.676 0 4.586 2.006 1.911 2.006 1.911 4.777 0 2.675-1.91 4.586-1.911 2.006-4.587 2.006zm-16.528 0q-2.77 0-4.777-2.006-1.91-1.91-1.91-4.586 0-2.77 1.91-4.777 2.006-2.006 4.777-2.006 2.675 0 4.586 2.006 1.91 2.006 1.91 4.777 0 2.675-1.91 4.586-1.91 2.006-4.586 2.006z" style="-inkscape-font-specification:'Noto Sans Arabic Bold'"/><path d="M517.566 98.683l-4.873-11.847q6.784-2.388 12.038-5.637 5.255-3.152 8.217-7.356 3.057-4.204 3.057-9.268 0-4.012-1.815-8.79-1.815-4.776-4.395-9.744l12.516-6.02q1.72 2.962 2.962 6.402 1.337 3.344 2.197 6.019.86 2.675 1.146 3.63 1.338 4.586 3.631 6.115 2.389 1.529 7.643 1.529 3.63 0 5.16 1.91 1.624 1.816 1.624 4.586 0 2.962-2.007 4.968-2.006 1.911-5.732 1.911-7.261 0-11.083-3.917-1.624 5.923-6.21 10.892-4.49 5.063-10.796 8.79-6.306 3.725-13.28 5.827zM458.767 78.62q-13.662 0-21.974-2.77-8.217-2.772-11.847-7.644-3.63-4.873-3.63-11.083 0-4.49 1.146-9.172 1.146-4.777 2.197-8.407l11.943 2.77q-.669 2.676-1.338 5.733-.573 2.962-.573 5.255 0 3.535 2.484 6.305 2.58 2.675 8.408 4.204 5.828 1.433 15.668 1.433v.287l.096-.287q18.534 0 27.515-2.102 9.077-2.102 9.077-7.356 0-3.44-1.147-8.217-1.146-4.872-2.962-9.84l12.516-3.63q1.242 3.247 2.389 7.165 1.146 3.821 1.815 7.738.764 3.822.764 7.166 0 5.923-2.58 10.223-2.579 4.203-8.598 6.974-5.924 2.675-16.05 3.917-10.128 1.338-25.223 1.338v-.096zm7.357 22.356q-2.771 0-4.777-1.91-1.911-1.911-1.911-4.682 0-2.77 1.91-4.873 2.007-2.006 4.778-2.006 2.77 0 4.681 2.006 2.006 2.102 2.006 4.873 0 2.77-2.006 4.681-1.91 1.911-4.681 1.911zM363.21 77.091l.956-13.375q6.21 0 8.694-1.338 2.484-1.433 2.484-5.924 0-2.675-.764-6.4-.669-3.727-1.815-7.74-1.147-4.012-2.293-7.356l13.184-3.63q1.147 3.248 2.293 7.547 1.147 4.3 1.911 8.885.86 4.49.86 8.694 0 6.497-2.006 10.605-2.007 4.013-5.637 6.21-3.535 2.198-8.121 3.058-4.586.764-9.745.764zm11.752 21.974q-2.77 0-4.777-1.91-1.91-1.911-1.91-4.682 0-2.77 1.91-4.872 2.006-2.007 4.777-2.007 2.77 0 4.682 2.007 2.006 2.101 2.006 4.872 0 2.77-2.006 4.682-1.911 1.91-4.682 1.91z" style="-inkscape-font-specification:'Noto Sans Arabic Bold'"/><path d="M321.821 98.683l-4.873-11.847q6.784-2.388 12.038-5.637 5.255-3.152 8.217-7.356 3.057-4.204 3.057-9.268 0-4.012-1.815-8.79-1.815-4.776-4.395-9.744l12.516-6.02q1.72 2.962 2.962 6.402 1.337 3.344 2.197 6.019.86 2.675 1.146 3.63 1.338 4.586 3.631 6.115 2.389 1.529 7.643 1.529 3.63 0 5.16 1.91 1.624 1.816 1.624 4.586 0 2.962-2.007 4.968-2.006 1.911-5.732 1.911-7.261 0-11.083-3.917-1.624 5.923-6.21 10.892-4.49 5.063-10.796 8.79-6.306 3.725-13.28 5.827zm-43.666-.095l-2.771-13.376q9.172-1.146 15.286-3.057 6.21-1.816 9.172-6.21-1.337.477-2.961.764-1.53.287-3.344.287-4.49 0-8.217-1.434-3.726-1.528-5.923-4.681-2.198-3.153-2.198-8.216 0-4.682 1.529-9.077t4.204-7.834q2.77-3.535 6.305-5.541 3.63-2.102 7.644-2.102 4.777 0 8.312 2.388 3.63 2.389 6.019 6.306 2.388 3.822 3.63 8.312 1.242 4.49 1.242 8.599 0 10.796-4.586 18.343-4.586 7.548-13.089 11.656-8.503 4.204-20.254 4.873zm12.229-38.599q0 4.013 6.019 4.013 3.153 0 6.21-.86-.191-2.58-.955-5.063-.67-2.58-2.007-4.204-1.337-1.624-3.344-1.624-2.675 0-4.299 2.58-1.624 2.483-1.624 5.158zm-77.761 17.102l.956-13.375q10.318 0 20.063-2.293t17.293-7.357q-4.395-2.58-9.745-4.013-5.255-1.433-11.56-1.433-2.39 0-4.969.287-2.484.19-5.063.764l-1.911-13.089q2.77-.764 5.828-1.05 3.153-.383 5.541-.383 6.497 0 11.656 1.72 5.16 1.72 9.363 4.012 4.3 2.293 7.93 4.013 3.726 1.72 7.26 1.72h3.536l1.528 12.707q-4.108.19-7.738 1.624-3.535 1.337-7.07 3.44-3.44 2.006-7.452 4.203-3.918 2.197-8.886 4.108-4.968 1.911-11.464 3.153-6.497 1.242-15.096 1.242zm28.662 21.974q-2.77 0-4.777-1.91-1.91-1.911-1.91-4.682 0-2.77 1.91-4.872 2.007-2.007 4.777-2.007t4.682 2.007q2.006 2.101 2.006 4.872 0 2.77-2.006 4.682-1.911 1.91-4.682 1.91z" style="-inkscape-font-specification:'Noto Sans Arabic Bold'"/><path d="M173.624 77.091l.955-13.375q3.44 0 5.923-.67 2.484-.668 4.204-2.674 1.72-2.102 2.866-6.115 1.242-4.013 2.198-10.7l12.516 2.101q-.383 2.198-.86 5.255-.478 3.057-.478 5.637 0 3.44 2.866 5.35 2.866 1.816 9.84 1.816 3.631 0 5.16 1.91 1.529 1.816 1.529 4.586 0 2.962-2.007 4.968-1.91 1.911-5.637 1.911-6.687 0-11.464-1.72-4.682-1.72-6.88-6.114-2.579 3.44-6.114 5.159-3.44 1.624-7.26 2.197-3.727.478-7.357.478zm26.655 22.165q-2.77 0-4.777-2.006-1.91-1.91-1.91-4.586 0-2.77 1.91-4.777 2.007-2.006 4.777-2.006 2.675 0 4.586 2.006 1.91 2.006 1.91 4.777 0 2.675-1.91 4.586-1.91 2.006-4.586 2.006zm-16.528 0q-2.77 0-4.777-2.006-1.911-1.91-1.911-4.586 0-2.77 1.91-4.777 2.007-2.006 4.778-2.006 2.675 0 4.586 2.006 1.91 2.006 1.91 4.777 0 2.675-1.91 4.586-1.911 2.006-4.586 2.006z" style="-inkscape-font-specification:'Noto Sans Arabic Bold'"/><path d="M125.107 77.091l.956-13.375h13.375q4.968 0 6.592-.86 1.625-.86 1.625-2.675 0-2.102-2.102-4.873-2.007-2.866-5.064-5.923-3.057-3.058-6.115-5.924-3.057-2.866-5.159-4.968-2.006-2.197-2.006-3.153 0-3.917.573-5.637.669-1.72 1.72-2.77 2.197-2.198 7.07-5.064 4.968-2.866 11.942-6.21 6.975-3.44 15.287-7.261l5.446 11.656q-9.459 4.204-15.956 7.356-6.496 3.153-10.987 5.733 6.306 5.732 10.892 10.987 4.586 5.255 8.694 11.942 2.102 3.344 4.3 4.968 2.292 1.625 4.394 2.198 2.198.478 3.917.478 3.63 0 5.16 1.91 1.624 1.816 1.624 4.586 0 2.962-2.007 4.968-2.006 1.911-5.732 1.911-3.726 0-8.217-1.529-4.394-1.528-7.452-5.35-3.057 3.726-7.834 5.35-4.681 1.53-11.56 1.53z" style="-inkscape-font-specification:'Noto Sans Arabic Bold'"/><path d="M56.454 78.62q-13.662 0-21.974-2.77-8.216-2.772-11.847-7.644-3.63-4.873-3.63-11.083 0-4.49 1.146-9.172 1.146-4.777 2.197-8.407l11.943 2.77q-.669 2.676-1.338 5.733-.573 2.962-.573 5.255 0 3.535 2.484 6.305 2.58 2.675 8.408 4.204 5.828 1.433 15.668 1.433v.287l.096-.287q6.879 0 13.184-.669 6.401-.668 12.134-2.675 5.828-2.006 10.891-5.923 5.064-3.917 9.172-10.51l10.7 4.873q-.572 1.815-.955 3.535-.382 1.624-.382 2.675 0 3.344 2.58 5.255 2.58 1.91 9.65 1.91 3.63 0 5.158 1.911 1.53 1.816 1.53 4.586 0 2.962-2.007 4.968-1.911 1.911-5.637 1.911-8.599 0-14.14-2.962-5.446-3.057-7.261-8.025-7.357 6.497-19.681 9.554-12.23 2.962-27.42 2.962v-.096zm1.242-43.758q-2.77 0-4.777-1.91-1.91-2.007-1.91-4.682 0-2.77 1.91-4.777 2.007-2.006 4.777-2.006 2.675 0 4.586 2.006 1.91 2.007 1.91 4.777 0 2.675-1.91 4.682-1.91 1.91-4.586 1.91zm16.529.096q-2.771 0-4.777-1.91-1.911-2.007-1.911-4.682 0-2.77 1.91-4.777 2.007-2.007 4.778-2.007 2.675 0 4.586 2.007 1.91 2.006 1.91 4.777 0 2.675-1.91 4.681-1.911 1.911-4.586 1.911z" style="-inkscape-font-specification:'Noto Sans Arabic Bold'"/></g></svg>