<svg xmlns="http://www.w3.org/2000/svg" width="650" height="1100" viewBox="0 0 171.979 291.042"><g fill-rule="evenodd"><g transform="translate(-200.4 22.165)"><path d="M283.613 14.442c-6.209.089-10.787 6.105-11.11 13.21-.302 6.61 1.235 14.605 15.015 15.075-.442 7.474-8.353 6.465-15.961 4.717l.033 8.234c21.558 4.926 26.81-7.285 26.072-23.995-.371-8.387-1.716-17.419-14.049-17.241zm5.345 10.98c.176 2.624 1.216 7.089.318 7.538-6.032.742-13.377-1.543-6.129-10.25.125-.542 4.064-.426 5.811 2.712zM363.804-7.314S337.358-.05 333.676 10.762c-.992 2.912 5.222 7.609 5.222 7.609 3.824 3.874 11.697 8.12 8.086 13.14-2.907 1.546-17.124.83-19.67.108-2.205-3.723-4.41-8.837-6.617-16.38l-9.494 4.603c14.748 22.674-11.508 28.485-11.508 28.485l2.876 8.918s17.911-3.34 21.94-18.013c5.369 4.719 14.847 2.957 21.396 2.292 6.654-.737 11.333-2.6 12.945-9.442.474-10.116-14.283-21.171-14.283-21.171L367.771-.533zM263.388 19.498l-8.632 1.726c9.264 18.189-29.26 14.11-35.676 11.22-4.82-2.17-3.28-10.729-1.727-14.673l-9.206-1.726s-5.632 16.207-.288 20.428c13.879 10.96 44.082 9.235 55.385.863 3.641-2.697.928-15.842.144-17.838z"/><circle style="line-height:1.25;-inkscape-font-specification:SchoolBell" cx="228.271" cy="8.079" r="4.244" font-weight="400" font-size="41.443" font-family="SchoolBell" letter-spacing="0" word-spacing="0"/><circle style="line-height:1.25;-inkscape-font-specification:SchoolBell" cx="240.626" cy="7.989" r="4.244" font-weight="400" font-size="41.443" font-family="SchoolBell" letter-spacing="0" word-spacing="0"/></g><g transform="translate(-23.5 114.236)"><circle r="4.244" cy="1.422" cx="143.631" style="line-height:1.25;-inkscape-font-specification:SchoolBell" font-weight="400" font-size="41.443" font-family="SchoolBell" letter-spacing="0" word-spacing="0"/><path d="M80.32-7.082l1.323 43.09s.427 6.573 14.93 6.425c9.833-.1 12.662-5.292 12.662-5.292s5.103 6.048 18.143 5.859c9.364-.414 17.58 1.743 25.957-4.404 6.306 6.033 24.311 3.187 27.272-2.045 5.583-12.341-1.787-27.63-1.787-27.63l-9.494 3.454c5.1 10.743 4.016 16.396 1.618 18.764-1.521 3.737-11.718 1.25-12.745 1.08 6.75-14.073-6.47-21.393-17.403-18.513-10.933 3.133-20.136 14.905-22.112 18.332-7.992 1.95-4.363-7.377-4.346-10.961l-8.127-1.512s-.8 14.174-8.315 12.284c-6.437-1.618-6.993 5.103-7.56-38.742zm65.32 28.06c5.814.04 4.227 8.981 4.227 8.981s.946 4.536-21.355 3.78c0 0 8.694-11.528 15.875-12.662.449-.07.866-.102 1.253-.1z"/><circle style="line-height:1.25;-inkscape-font-specification:SchoolBell" cx="172.531" cy="52.736" r="4.244" font-weight="400" font-size="41.443" font-family="SchoolBell" letter-spacing="0" word-spacing="0"/><path d="M31.372 24.668s-9.437 21.632 3.78 28.915c9.26 5.103 24.568 5.67 32.884-2.646 8.35-8.35 3.401-24.001 3.401-24.001l-8.315 2.835s5.282 19.943-15.308 17.953c-17.358-1.677-6.426-19.654-6.426-19.654z"/><circle cy="16.367" cx="51.316" style="line-height:1.25;-inkscape-font-specification:SchoolBell" r="4.244" font-weight="400" font-size="41.443" font-family="SchoolBell" letter-spacing="0" word-spacing="0"/></g><g transform="translate(151.881 208.616)"><path d="M-4.63 3.51c-4.098-.061-7.381 1.627-7.381 1.627s-10.238 8.476-5.376 18.586c4.322 8.987 15.386 4.937 15.386 4.937s5.342 4.144-14.035 3.61C-35.413 31.734-29 29.33-32.073 14.896l-8.16.189c-.016 7.517 2.528 15.169-.895 16.688-2.966 1.316-5.87 2.271-7.761.289-1.716-1.8-.524-6.396.486-11.498l-10.042-.525c-.349 5.232-.876 12.771-10.11 12.496-3.936-.756-6.28 1.203-3.608-11.76l-8.686-1.068c.092 5.606-.89 10.984-4.26 12.096-5.784 1.908-14.838.18-16.454-5.548-.956-2.248 1.089-.523 3.251-1.457 0 0 .218-8.05-1.347-8.36-13.351-6.662-24.829-10.399-36.069-7.536l.497 7.887c.146.02 17.914-2.528 22.765 4.935-31.682 4.144-32.368 39.56-12.623 44.883.415.112 16.531 3.242 28.395-2.394 1.599-.76-.929-8.687-2.5-8.316-32.615 7.705-30.826-7.826-29.433-12.17 3.227-10.053 14.638-14.568 19.09-16.545.56 18.427 29.631 16.82 31.895 10.298 2.311 5.758 19.17 6.79 22.08-.506.906 5.637 19.008 8.347 20.71-1.874 5.727 10.14 31.01 7.518 36.475 3.97 5.318-3.455 11.606-17.994 4.802-28.955C3.236 4.978-1.015 3.562-4.63 3.509zm.11 9.354a9.726 9.726 0 0 1 2.114.296s2.94 3.207 1.07 6.414c0 0-7.751 2.94-7.751-2.673 0-3.508 2.61-4.092 4.567-4.037z"/><circle cy="-8.222" cx="-4.811" style="line-height:1.25;-inkscape-font-specification:SchoolBell" r="4.244" font-weight="400" font-size="41.443" font-family="SchoolBell" letter-spacing="0" word-spacing="0"/><circle cy="5.141" cx="-50.781" style="line-height:1.25;-inkscape-font-specification:SchoolBell" r="4.244" font-weight="400" font-size="41.443" font-family="SchoolBell" letter-spacing="0" word-spacing="0"/><circle cy="5.141" cx="-61.472" style="line-height:1.25;-inkscape-font-specification:SchoolBell" r="4.244" font-weight="400" font-size="41.443" font-family="SchoolBell" letter-spacing="0" word-spacing="0"/><circle cy="-3.946" cx="-56.127" style="line-height:1.25;-inkscape-font-specification:SchoolBell" r="4.244" font-weight="400" font-size="41.443" font-family="SchoolBell" letter-spacing="0" word-spacing="0"/><circle cy="-2.877" cx="-117.599" style="line-height:1.25;-inkscape-font-specification:SchoolBell" r="4.244" font-weight="400" font-size="41.443" font-family="SchoolBell" letter-spacing="0" word-spacing="0"/></g></g></svg>