<svg xmlns="http://www.w3.org/2000/svg" width="650" height="1100" viewBox="0 0 171.979 291.042"><g aria-label="كروت بضان فشخ" style="line-height:1.25;-inkscape-font-specification:SchoolBell;text-align:end" font-weight="700" font-size="68.47" font-family="Noto Sans Arabic" letter-spacing="0" word-spacing="0" text-anchor="end" stroke-width=".357"><path d="M136.544 67.235l.685-9.585h9.791q5.752 0 5.752-3.218 0-.822-.89-2.602-.822-1.849-3.63-4.45-1.506-1.37-3.286-2.877-1.712-1.574-3.286-2.944-1.575-1.438-2.602-2.533-1.027-1.096-1.027-1.575 0-1.575.274-3.423.342-1.918 1.164-2.602 1.574-1.438 5.066-3.56 3.56-2.123 8.559-4.657 5.067-2.533 11.16-5.203l3.903 8.353q-5.751 2.465-10.544 4.793-4.793 2.328-8.422 4.45 4.725 3.903 7.532 7.053 2.876 3.08 4.245 5.614 1.438 2.465 1.849 4.45.479 1.986.479 3.493 0 1.643-.822 3.56-.753 1.849-2.807 3.56-1.985 1.712-5.614 2.808-3.63 1.095-9.312 1.095z" style="-inkscape-font-specification:'Noto Sans Arabic Bold';text-align:end"/><path d="M106.882 82.71l-3.492-8.49q4.861-1.712 8.627-4.04 3.766-2.26 5.889-5.273 2.19-3.012 2.19-6.641 0-2.876-1.3-6.3-1.301-3.423-3.15-6.983l8.97-4.314q1.232 2.123 2.122 4.588.959 2.396 1.575 4.313.616 1.917.822 2.602.958 3.287 2.601 4.382 1.712 1.096 5.478 1.096 2.602 0 3.697 1.369 1.164 1.3 1.164 3.287 0 2.122-1.437 3.56-1.438 1.37-4.109 1.37-5.203 0-7.942-2.808-1.164 4.245-4.45 7.806-3.219 3.629-7.738 6.299-4.519 2.67-9.517 4.177zm-31.294-.069l-1.986-9.586q6.574-.821 10.956-2.19 4.45-1.302 6.573-4.451-.959.342-2.123.547-1.095.206-2.396.206-3.218 0-5.889-1.027-2.67-1.096-4.245-3.355-1.575-2.26-1.575-5.889 0-3.355 1.096-6.504 1.095-3.15 3.013-5.615 1.985-2.533 4.519-3.971 2.601-1.506 5.477-1.506 3.424 0 5.957 1.711 2.602 1.712 4.314 4.52 1.711 2.738 2.601 5.956.89 3.218.89 6.163 0 7.737-3.286 13.146-3.287 5.409-9.38 8.353-6.094 3.013-14.516 3.492zm8.764-27.662q0 2.876 4.314 2.876 2.26 0 4.45-.616-.137-1.849-.684-3.63-.48-1.848-1.438-3.012-.959-1.164-2.397-1.164-1.917 0-3.08 1.849-1.165 1.78-1.165 3.697zM30.642 68.33q-9.791 0-15.748-1.985-5.889-1.985-8.49-5.477-2.602-3.492-2.602-7.943 0-3.218.821-6.573.822-3.423 1.575-6.025l8.559 1.985q-.48 1.918-.959 4.109-.41 2.122-.41 3.765 0 2.534 1.78 4.52 1.848 1.917 6.025 3.012 4.177 1.027 11.23 1.027v.206l.068-.206q13.283 0 19.719-1.506 6.505-1.507 6.505-5.272 0-2.465-.822-5.889-.822-3.492-2.123-7.052l8.97-2.602q.89 2.328 1.712 5.135.821 2.739 1.3 5.546.548 2.739.548 5.135 0 4.246-1.848 7.327-1.85 3.012-6.163 4.998-4.245 1.917-11.503 2.807-7.257.959-18.076.959v-.069zm-.548-31.358q-1.985 0-3.423-1.37-1.37-1.438-1.37-3.355 0-1.985 1.37-3.423 1.438-1.438 3.423-1.438 1.917 0 3.287 1.438 1.37 1.438 1.37 3.423 0 1.917-1.37 3.355-1.37 1.37-3.287 1.37zm11.845.068q-1.985 0-3.423-1.37-1.37-1.437-1.37-3.354 0-1.986 1.37-3.424 1.438-1.438 3.423-1.438 1.918 0 3.287 1.438 1.37 1.438 1.37 3.424 0 1.917-1.37 3.355-1.37 1.37-3.287 1.37zm103.966 119.779l.685-9.586q4.45 0 6.23-.959 1.781-1.027 1.781-4.245 0-1.917-.548-4.587-.479-2.67-1.3-5.546-.822-2.876-1.644-5.273l9.449-2.602q.822 2.328 1.643 5.41.822 3.08 1.37 6.367.616 3.218.616 6.231 0 4.656-1.438 7.6-1.438 2.876-4.04 4.45-2.533 1.576-5.82 2.192-3.286.548-6.984.548zm8.422 15.748q-1.985 0-3.423-1.37-1.37-1.37-1.37-3.355 0-1.985 1.37-3.492 1.438-1.438 3.423-1.438 1.986 0 3.355 1.438 1.438 1.507 1.438 3.492 0 1.986-1.438 3.355-1.37 1.37-3.355 1.37z" style="-inkscape-font-specification:'Noto Sans Arabic Bold';text-align:end"/><path d="M112.636 157.709q-7.67 0-12.257-.822t-7.12-2.26q-2.465-1.437-3.766-3.355-2.534 3.63-5.752 4.588-3.218.959-6.573.959l.685-9.586q2.807 0 4.108-1.233 1.37-1.3 2.191-4.245.89-2.944 2.191-8.01l8.696 2.122q-1.438 5.546-1.438 7.19 0 1.574.822 2.6.89 1.028 3.628 1.644 2.67-4.108 5.957-7.805 3.287-3.766 6.984-6.642 3.698-2.876 7.669-4.519 3.971-1.643 8.08-1.643 6.915 0 10.68 3.903 3.766 3.902 3.766 10.065 0 4.998-2.875 8.832-2.808 3.835-9.107 6.026-6.23 2.19-16.57 2.19zm13.146-21.431q-3.013 0-6.094 1.711-3.013 1.712-5.888 4.45-2.808 2.74-5.067 5.684h2.19q7.943 0 12.394-.753 4.519-.753 6.368-2.26 1.917-1.575 1.917-3.766 0-1.917-1.37-3.492-1.37-1.574-4.45-1.574zm20.061 20.54q-5.272 0-9.79-1.369-4.52-1.438-6.916-3.492l6.162-6.641q2.465 1.027 5.067 1.506 2.602.41 6.162.41 2.602 0 3.697 1.37 1.164 1.301 1.164 3.287 0 2.122-1.437 3.56-1.438 1.37-4.109 1.37zm-21.088-36.494q-2.123 0-3.63-1.438-1.437-1.438-1.437-3.56 0-2.123 1.438-3.63 1.506-1.505 3.629-1.505 2.054 0 3.492 1.506 1.506 1.506 1.506 3.629 0 2.122-1.506 3.56-1.438 1.438-3.492 1.438z" style="-inkscape-font-specification:'Noto Sans Arabic Bold';text-align:end"/><path d="M77.075 156.819q-6.368 0-9.86-1.301-3.423-1.301-4.792-4.04-1.37-2.807-1.575-7.053l-1.438-38.069h9.586l1.438 33.482q.136 3.15.684 4.724.548 1.575 2.054 2.123 1.575.548 4.588.548 2.602 0 3.697 1.37 1.164 1.3 1.164 3.286 0 2.122-1.438 3.56-1.438 1.37-4.108 1.37zm-70.608-2.26q0-2.396.616-5.957.685-3.629 2.944-8.627l8.422 2.944q-1.164 3.218-1.78 5.546-.616 2.26-.616 4.45 0 4.999 3.355 7.395 3.423 2.397 9.038 2.397 4.245 0 6.983-1.164 2.74-1.096 4.246-2.944 1.506-1.78 2.122-3.903.616-2.191.616-4.245 0-2.807-.958-6.642-.959-3.903-3.424-8.764l8.833-3.766q1.37 2.397 2.533 5.615 1.164 3.15 1.849 6.573.753 3.423.753 6.505 0 2.738-.685 5.82-.684 3.012-2.328 5.956-1.574 2.945-4.313 5.272-2.739 2.397-6.779 3.835-4.04 1.438-9.654 1.438-5.957 0-10.955-1.78-4.93-1.78-7.874-5.752-2.944-3.903-2.944-10.202zm22.32-26.019q-2.122 0-3.628-1.437-1.438-1.438-1.438-3.56 0-2.123 1.438-3.63 1.506-1.506 3.629-1.506 2.054 0 3.492 1.506 1.506 1.507 1.506 3.63 0 2.122-1.506 3.56-1.438 1.437-3.492 1.437zm104.147 117.862l.684-9.518q5.683 0 9.107-.068 3.492-.069 5.409-.274 1.986-.274 2.944-.616.959-.411 1.643-.89.548-.411.959-1.027.48-.617.822-1.507-2.808 1.027-5.82 1.027-5.41 0-8.627-2.26-3.15-2.327-3.15-8.147 0-3.013 1.027-5.957 1.027-3.013 2.944-5.41 1.917-2.464 4.52-3.902 2.601-1.506 5.75-1.506 4.657 0 7.67 2.739 3.08 2.67 4.518 7.257 1.507 4.52 1.507 10.065 0 4.862-1.438 8.49-1.438 3.561-3.424 5.615-1.643 1.712-3.766 2.876-2.122 1.164-5.203 1.849-3.013.616-7.464.89-4.382.274-10.612.274zm13.42-25.129q0 2.944 4.587 2.944 2.191 0 4.382-.684-.342-3.766-1.575-5.752-1.232-1.985-3.15-1.985-1.642 0-2.943 1.574-1.301 1.507-1.301 3.903zm4.656-21.294q-2.123 0-3.63-1.438-1.437-1.438-1.437-3.56 0-2.123 1.438-3.63 1.506-1.505 3.629-1.505 2.054 0 3.492 1.506 1.506 1.506 1.506 3.629 0 2.122-1.506 3.56-1.438 1.438-3.492 1.438z" style="-inkscape-font-specification:'Noto Sans Arabic Bold';text-align:end"/><path d="M63.127 246.402l.684-9.586q2.26 0 3.698-.342 1.437-.411 2.328-1.712.958-1.37 1.643-4.04.753-2.739 1.643-7.395l8.901 1.644q-.274 1.506-.753 3.765-.41 2.26-.41 3.903 0 1.917 1.232 3.081 1.232 1.096 4.587 1.096 1.78 0 3.013-.342 1.3-.411 2.19-1.712.96-1.37 1.644-4.177.753-2.876 1.438-7.737l9.038 1.438q-.41 2.396-.822 5.067-.41 2.67-.41 4.04 0 1.369 1.232 2.396 1.3 1.027 5.135 1.027 6.026 0 6.026-5.41 0-2.327-.206-5.271-.137-3.013-.685-7.464l8.833-.684q.48 5.888 1.096 9.585.616 3.698 1.643 5.752 1.095 1.986 2.876 2.739 1.848.753 4.792.753 2.602 0 3.698 1.37 1.164 1.3 1.164 3.286 0 2.122-1.438 3.56-1.37 1.37-4.108 1.37-2.26 0-4.656-.48-2.397-.479-4.52-1.985-2.053-1.507-3.354-4.52-1.507 4.177-4.382 5.615-2.876 1.37-7.463 1.37-3.63 0-6.3-1.096-2.67-1.164-3.766-3.903-1.3 2.191-2.944 3.287-1.643 1.027-3.902 1.37-2.26.342-5.341.342-1.849 0-3.697-.274-1.78-.274-3.424-1.233-1.575-1.027-2.67-3.218-2.328 3.081-5.683 3.903-3.355.822-7.6.822zm35.125-42.383q-1.712 0-3.013-1.301-1.233-1.301-1.233-3.081t1.233-3.013q1.3-1.232 3.013-1.232 1.78 0 3.012 1.232 1.233 1.233 1.233 3.013 0 1.78-1.233 3.08-1.232 1.302-3.012 1.302zm-5.478 9.038q-1.712 0-3.013-1.301-1.232-1.301-1.232-3.081t1.232-3.013q1.301-1.232 3.013-1.232 1.78 0 3.013 1.232 1.232 1.233 1.232 3.013 0 1.78-1.232 3.08-1.233 1.302-3.013 1.302zm10.613 0q-1.712 0-3.013-1.301-1.232-1.301-1.232-3.081t1.232-3.013q1.301-1.232 3.013-1.232 1.78 0 3.012 1.232 1.233 1.233 1.233 3.013 0 1.78-1.233 3.08-1.232 1.302-3.012 1.302z" style="-inkscape-font-specification:'Noto Sans Arabic Bold';text-align:end"/><path d="M38.39 273.036q-6.984 0-12.599-2.328-5.614-2.328-8.9-6.915-3.219-4.519-3.219-11.23 0-7.394 3.56-13.008 3.561-5.615 9.655-9.38 6.094-3.835 13.557-5.752-3.081-.959-7.121-1.917-4.04-.959-8.696-.959-2.465 0-4.656.342-2.122.274-3.766.685l-1.437-9.312q1.985-.616 4.245-1.027 2.328-.41 4.793-.41 4.656 0 8.421 1.026 3.766.959 7.053 2.26 3.286 1.232 6.368 2.26 3.15.958 6.367.958h2.739l.89 10.27q-2.19 0-4.861.48.821 3.423 2.533 5.135 1.78 1.643 4.382 2.123 2.67.479 6.162.479 2.602 0 3.698 1.37 1.095 1.3 1.095 3.286 0 2.122-1.438 3.56-1.369 1.37-4.04 1.37-3.834 0-7.12-.548-3.287-.548-5.82-2.123-2.533-1.574-4.177-4.656-1.643-3.15-2.26-8.216-3.697 1.232-7.394 3.15-3.629 1.917-6.641 4.519-2.945 2.533-4.725 5.751-1.78 3.218-1.78 6.984 0 4.382 2.122 7.052 2.191 2.74 5.82 3.903 3.63 1.233 8.08 1.233 7.395 0 15.406-3.15l2.807 8.353q-4.999 2.328-9.928 3.355-4.93 1.027-9.175 1.027zm-3.218-67.58q-2.123 0-3.63-1.437-1.437-1.438-1.437-3.56 0-2.123 1.438-3.63 1.506-1.506 3.629-1.506 2.054 0 3.492 1.507 1.506 1.506 1.506 3.628 0 2.123-1.506 3.56-1.438 1.439-3.492 1.439z" style="-inkscape-font-specification:'Noto Sans Arabic Bold';text-align:end"/></g></svg>